<?xml version="1.0" encoding="UTF-8" standalone="no"?>
<svg
   width="541.91901pt"
   height="413.74771pt"
   version="1.1"
   viewBox="0 0 541.91901 413.74771"
   id="svg2367"
   sodipodi:docname="cloud1.svg"
   inkscape:version="1.1.2 (0a00cf5, 2022-02-04)"
   xmlns:inkscape="http://www.inkscape.org/namespaces/inkscape"
   xmlns:sodipodi="http://sodipodi.sourceforge.net/DTD/sodipodi-0.dtd"
   xmlns="http://www.w3.org/2000/svg"
   xmlns:svg="http://www.w3.org/2000/svg">
  <sodipodi:namedview
     id="namedview2369"
     pagecolor="#ffffff"
     bordercolor="#666666"
     borderopacity="1.0"
     inkscape:pageshadow="2"
     inkscape:pageopacity="0.0"
     inkscape:pagecheckerboard="0"
     inkscape:document-units="pt"
     showgrid="false"
     inkscape:zoom="0.885"
     inkscape:cx="361.58192"
     inkscape:cy="369.49153"
     inkscape:window-width="1920"
     inkscape:window-height="1031"
     inkscape:window-x="0"
     inkscape:window-y="25"
     inkscape:window-maximized="1"
     inkscape:current-layer="g2365"
     fit-margin-top="0"
     fit-margin-left="0"
     fit-margin-right="0"
     fit-margin-bottom="0" />
  <defs
     id="defs2293">
    <symbol
       id="t"
       overflow="visible">
      <path
         d="m 20.172,-1.2031 c -1.043,0.54297 -2.125,0.94922 -3.25,1.2188 -1.125,0.26958 -2.3047,0.40625 -3.5312,0.40625 -3.6562,0 -6.5547,-1.0195 -8.6875,-3.0625 -2.1367,-2.0391 -3.2031,-4.8125 -3.2031,-8.3125 0,-3.5078 1.0664,-6.2852 3.2031,-8.3281 2.1328,-2.0391 5.0312,-3.0625 8.6875,-3.0625 1.2266,0 2.4062,0.13672 3.5312,0.40625 1.125,0.27344 2.207,0.67969 3.25,1.2188 v 4.5469 c -1.0547,-0.71875 -2.0898,-1.2422 -3.1094,-1.5781 -1.0117,-0.33203 -2.0859,-0.5 -3.2188,-0.5 -2.0117,0 -3.6016,0.65234 -4.7656,1.9531 -1.1562,1.293 -1.7344,3.0742 -1.7344,5.3438 0,2.2617 0.57812,4.043 1.7344,5.3438 1.1641,1.293 2.7539,1.9375 4.7656,1.9375 1.1328,0 2.207,-0.16406 3.2188,-0.5 1.0195,-0.33203 2.0547,-0.85938 3.1094,-1.5781 z"
         id="path2233" />
    </symbol>
    <symbol
       id="d"
       overflow="visible">
      <path
         d="m 14.766,-11.984 c -0.46875,-0.21875 -0.93359,-0.375 -1.3906,-0.46875 -0.44922,-0.10156 -0.90234,-0.15625 -1.3594,-0.15625 -1.3555,0 -2.3984,0.43359 -3.125,1.2969 -0.73047,0.86719 -1.0938,2.1055 -1.0938,3.7188 V 5e-4 H 2.5316 v -16.469 h 5.2656 v 2.7031 c 0.67578,-1.0703 1.4531,-1.8516 2.3281,-2.3438 0.875,-0.5 1.9258,-0.75 3.1562,-0.75 0.17578,0 0.36328,0.01172 0.5625,0.03125 0.20703,0.01172 0.50781,0.03906 0.90625,0.07813 z"
         id="path2236" />
    </symbol>
    <symbol
       id="a"
       overflow="visible">
      <path
         d="m 18.969,-8.2812 v 1.5 H 6.657 c 0.125,1.2422 0.56641,2.168 1.3281,2.7812 0.76953,0.61719 1.8438,0.92188 3.2188,0.92188 1.1016,0 2.2344,-0.16016 3.3906,-0.48438 1.1641,-0.33203 2.3633,-0.83203 3.5938,-1.5 V -1 c -1.25,0.46875 -2.5,0.82422 -3.75,1.0625 -1.2422,0.23828 -2.4805,0.35938 -3.7188,0.35938 -2.9805,0 -5.2969,-0.75391 -6.9531,-2.2656 -1.6484,-1.5078 -2.4688,-3.6328 -2.4688,-6.375 0,-2.6875 0.80469,-4.7969 2.4219,-6.3281 1.625,-1.5391 3.8594,-2.3125 6.7031,-2.3125 2.5938,0 4.6641,0.78125 6.2188,2.3438 1.5508,1.5547 2.3281,3.6328 2.3281,6.2344 z m -5.4062,-1.75 c 0,-1 -0.29297,-1.8008 -0.875,-2.4062 -0.58594,-0.61328 -1.3516,-0.92188 -2.2969,-0.92188 -1.0234,0 -1.8516,0.28906 -2.4844,0.85938 -0.63672,0.57422 -1.0312,1.3984 -1.1875,2.4688 z"
         id="path2239" />
    </symbol>
    <symbol
       id="e"
       overflow="visible">
      <path
         d="m 9.9062,-7.4062 c -1.0938,0 -1.9219,0.1875 -2.4844,0.5625 -0.55469,0.36719 -0.82812,0.91406 -0.82812,1.6406 0,0.66797 0.22266,1.1875 0.67188,1.5625 0.44531,0.375 1.0664,0.5625 1.8594,0.5625 0.98828,0 1.8203,-0.35156 2.5,-1.0625 0.67578,-0.70703 1.0156,-1.5977 1.0156,-2.6719 v -0.59375 z m 8.0469,-1.9844 V 0 h -5.3125 v -2.4375 c -0.71094,1 -1.5078,1.7305 -2.3906,2.1875 -0.875,0.44531 -1.9453,0.67188 -3.2031,0.67188 -1.7109,0 -3.0938,-0.49219 -4.1562,-1.4844 -1.0625,-1 -1.5938,-2.2891 -1.5938,-3.875 0,-1.9375 0.66016,-3.3516 1.9844,-4.25 1.332,-0.90625 3.4219,-1.3594 6.2656,-1.3594 h 3.0938 v -0.40625 c 0,-0.83203 -0.32812,-1.4414 -0.98438,-1.8281 -0.65625,-0.38281 -1.6836,-0.57812 -3.0781,-0.57812 -1.125,0 -2.1719,0.11719 -3.1406,0.34375 -0.96875,0.21875 -1.8711,0.55469 -2.7031,1 v -4.0156 c 1.125,-0.26953 2.2539,-0.47266 3.3906,-0.60938 1.1445,-0.14453 2.2852,-0.21875 3.4219,-0.21875 2.9688,0 5.1094,0.58984 6.4219,1.7656 1.3203,1.168 1.9844,3.0703 1.9844,5.7031 z"
         id="path2242" />
    </symbol>
    <symbol
       id="c"
       overflow="visible">
      <path
         d="m 8.2812,-21.141 v 4.6719 h 5.4219 v 3.7656 H 8.2812 v 6.9844 c 0,0.76172 0.14844,1.2773 0.45312,1.5469 0.30078,0.27344 0.90625,0.40625 1.8125,0.40625 h 2.7031 v 3.7656 h -4.5156 c -2.0859,0 -3.5586,-0.42969 -4.4219,-1.2969 -0.86719,-0.875 -1.2969,-2.3477 -1.2969,-4.4219 v -6.9844 h -2.625 v -3.7656 h 2.625 v -4.6719 z"
         id="path2245" />
    </symbol>
    <symbol
       id="l"
       overflow="visible">
      <path
         d="m 13.734,-14.062 v -8.8125 h 5.2969 V 5e-4 H 13.734 v -2.375 c -0.73047,0.96875 -1.5312,1.6797 -2.4062,2.125 -0.86719,0.44531 -1.8711,0.67188 -3.0156,0.67188 -2.0312,0 -3.6992,-0.80078 -5,-2.4062 -1.3047,-1.6133 -1.9531,-3.6914 -1.9531,-6.2344 0,-2.5391 0.64844,-4.6133 1.9531,-6.2188 1.3008,-1.6133 2.9688,-2.4219 5,-2.4219 1.1328,0 2.1406,0.23047 3.0156,0.6875 0.875,0.44922 1.6758,1.1523 2.4062,2.1094 z M 10.2652,-3.39 c 1.125,0 1.9844,-0.41016 2.5781,-1.2344 0.59375,-0.82031 0.89062,-2.0195 0.89062,-3.5938 0,-1.5703 -0.29688,-2.7695 -0.89062,-3.5938 -0.59375,-0.82031 -1.4531,-1.2344 -2.5781,-1.2344 -1.125,0 -1.9844,0.41406 -2.5781,1.2344 -0.58594,0.82422 -0.875,2.0234 -0.875,3.5938 0,1.5742 0.28906,2.7734 0.875,3.5938 0.59375,0.82422 1.4531,1.2344 2.5781,1.2344 z"
         id="path2248" />
    </symbol>
    <symbol
       id="k"
       overflow="visible">
      <path
         d="m 11.297,-3.3906 c 1.125,0 1.9844,-0.41016 2.5781,-1.2344 0.59375,-0.82031 0.89062,-2.0195 0.89062,-3.5938 0,-1.5703 -0.29688,-2.7695 -0.89062,-3.5938 -0.59375,-0.82031 -1.4531,-1.2344 -2.5781,-1.2344 -1.1367,0 -2.0078,0.41797 -2.6094,1.25 -0.59375,0.82422 -0.89062,2.0156 -0.89062,3.5781 0,1.5625 0.29688,2.7617 0.89062,3.5938 0.60156,0.82422 1.4727,1.2344 2.6094,1.2344 z m -3.5,-10.672 c 0.71875,-0.95703 1.5195,-1.6602 2.4062,-2.1094 0.88281,-0.45703 1.8984,-0.6875 3.0469,-0.6875 2.0312,0 3.6953,0.80859 5,2.4219 1.3008,1.6055 1.9531,3.6797 1.9531,6.2188 0,2.543 -0.65234,4.6211 -1.9531,6.2344 -1.3047,1.6055 -2.9688,2.4062 -5,2.4062 -1.1484,0 -2.1641,-0.22656 -3.0469,-0.67188 -0.88672,-0.45703 -1.6875,-1.1641 -2.4062,-2.125 V -8e-5 H 2.5314 v -22.875 H 7.797 Z"
         id="path2251" />
    </symbol>
    <symbol
       id="j"
       overflow="visible">
      <path
         d="m 0.375,-16.469 h 5.25 l 4.4375,11.172 3.75,-11.172 h 5.2656 L 12.1562,1.562 C 11.45698,3.394 10.6445,4.6753 9.7187,5.4058 8.80073,6.13236 7.582,6.4996 6.0625,6.4996 H 3.0156 V 3.0465 H 4.6562 C 5.55073,3.0465 6.2031,2.89806 6.6093,2.609 7.01555,2.32775 7.33196,1.81994 7.56242,1.0934 L 7.70304,0.62465 Z"
         id="path2254" />
    </symbol>
    <symbol
       id="i"
       overflow="visible">
      <path
         d="M 2.5312,-16.469 H 7.7968 V 0 H 2.5312 Z m 0,-6.4062 h 5.2656 v 4.2969 H 2.5312 Z"
         id="path2257" />
    </symbol>
    <symbol
       id="h"
       overflow="visible">
      <path
         d="m 15.828,-15.953 v 4.2969 c -0.71094,-0.48828 -1.4297,-0.84766 -2.1562,-1.0781 -0.71875,-0.23828 -1.4648,-0.35938 -2.2344,-0.35938 -1.4688,0 -2.6172,0.42969 -3.4375,1.2812 -0.8125,0.85547 -1.2188,2.0547 -1.2188,3.5938 0,1.543 0.40625,2.7422 1.2188,3.5938 0.82031,0.85547 1.9688,1.2812 3.4375,1.2812 0.82031,0 1.6016,-0.11719 2.3438,-0.35938 0.73828,-0.25 1.4219,-0.61328 2.0469,-1.0938 v 4.3125 c -0.82422,0.30469 -1.6562,0.52344 -2.5,0.67188 C 12.48435,0.34387 11.6328,0.422 10.7812,0.422 7.8124,0.422 5.4882,-0.33581 3.8124,-1.8592 2.1327,-3.3787 1.2968,-5.4998 1.2968,-8.2186 c 0,-2.7188 0.83594,-4.8359 2.5156,-6.3594 1.6758,-1.5195 4,-2.2812 6.9688,-2.2812 0.85156,0 1.6953,0.07813 2.5312,0.23438 0.84375,0.14844 1.6797,0.37109 2.5156,0.67188 z"
         id="path2260" />
    </symbol>
    <symbol
       id="b"
       overflow="visible">
      <path
         d="m 10.359,-13.094 c -1.168,0 -2.0586,0.42188 -2.6719,1.2656 -0.60547,0.83594 -0.90625,2.0391 -0.90625,3.6094 0,1.5859 0.30078,2.793 0.90625,3.625 0.61328,0.83594 1.5039,1.25 2.6719,1.25 1.1445,0 2.0195,-0.41406 2.625,-1.25 0.61328,-0.83203 0.92188,-2.0391 0.92188,-3.625 0,-1.5703 -0.30859,-2.7734 -0.92188,-3.6094 -0.60547,-0.84375 -1.4805,-1.2656 -2.625,-1.2656 z m 0,-3.7656 c 2.832,0 5.0469,0.76562 6.6406,2.2969 1.5938,1.5234 2.3906,3.6367 2.3906,6.3438 0,2.7109 -0.79688,4.8281 -2.3906,6.3594 -1.5938,1.5234 -3.8086,2.2812 -6.6406,2.2812 -2.8438,0 -5.0703,-0.75781 -6.6719,-2.2812 -1.5938,-1.5312 -2.3906,-3.6484 -2.3906,-6.3594 0,-2.707 0.79688,-4.8203 2.3906,-6.3438 1.6016,-1.5312 3.8281,-2.2969 6.6719,-2.2969 z"
         id="path2263" />
    </symbol>
    <symbol
       id="g"
       overflow="visible">
      <path
         d="M 19.078,-10.031 V 0 h -5.2812 v -7.6719 c 0,-1.4258 -0.03906,-2.4062 -0.10938,-2.9375 -0.0625,-0.53906 -0.17188,-0.94141 -0.32812,-1.2031 -0.19922,-0.33203 -0.47656,-0.59375 -0.82812,-0.78125 -0.35547,-0.19531 -0.75781,-0.29688 -1.2031,-0.29688 -1.1055,0 -1.9688,0.42969 -2.5938,1.2812 -0.625,0.84375 -0.9375,2.0156 -0.9375,3.5156 V -3e-5 h -5.2656 v -16.469 h 5.2656 v 2.4062 c 0.78906,-0.95703 1.6289,-1.6602 2.5156,-2.1094 0.89453,-0.45703 1.8828,-0.6875 2.9688,-0.6875 1.8945,0 3.332,0.58594 4.3125,1.75 0.98828,1.168 1.4844,2.8594 1.4844,5.0781 z"
         id="path2266" />
    </symbol>
    <symbol
       id="f"
       overflow="visible">
      <path
         d="m 17.797,-13.734 c 0.65625,-1.0195 1.4414,-1.7969 2.3594,-2.3281 0.91406,-0.53125 1.9258,-0.79688 3.0312,-0.79688 1.8828,0 3.3203,0.58594 4.3125,1.75 0.98828,1.168 1.4844,2.8594 1.4844,5.0781 v 10.031 h -5.2812 v -8.5781 c 0.0078,-0.13281 0.01563,-0.26953 0.01563,-0.40625 0.0078,-0.13281 0.01563,-0.33203 0.01563,-0.59375 0,-1.1641 -0.17188,-2.0078 -0.51562,-2.5312 -0.34375,-0.51953 -0.90234,-0.78125 -1.6719,-0.78125 -1,0 -1.7734,0.41406 -2.3125,1.2344 -0.54297,0.82422 -0.82422,2.0117 -0.84375,3.5625 v 8.0938 h -5.2969 v -8.5781 c 0,-1.832 -0.15625,-3.0078 -0.46875,-3.5312 -0.3125,-0.51953 -0.87109,-0.78125 -1.6719,-0.78125 -1.0117,0 -1.793,0.41797 -2.3438,1.25 -0.54297,0.82422 -0.8125,2.0078 -0.8125,3.5469 v 8.0938 h -5.2969 v -16.469 h 5.2969 v 2.4062 c 0.64453,-0.92578 1.3828,-1.625 2.2188,-2.0938 0.84375,-0.46875 1.7695,-0.70312 2.7812,-0.70312 1.1328,0 2.1328,0.27734 3,0.82812 0.875,0.54297 1.5391,1.3086 2,2.2969 z"
         id="path2269" />
    </symbol>
    <symbol
       id="s"
       overflow="visible">
      <path
         d="m 15.391,-15.953 v 4 c -1.125,-0.46875 -2.2148,-0.81641 -3.2656,-1.0469 -1.043,-0.23828 -2.0312,-0.35938 -2.9688,-0.35938 -1,0 -1.7461,0.125 -2.2344,0.375 -0.48047,0.25 -0.71875,0.63672 -0.71875,1.1562 0,0.41797 0.17969,0.74219 0.54688,0.96875 0.375,0.21875 1.0352,0.38672 1.9844,0.5 l 0.92188,0.125 c 2.6953,0.34375 4.5078,0.91406 5.4375,1.7031 0.9375,0.78125 1.4062,2.0078 1.4062,3.6719 0,1.7617 -0.65234,3.0859 -1.9531,3.9688 -1.293,0.875 -3.2188,1.3125 -5.7812,1.3125 -1.0938,0 -2.2266,-0.089844 -3.3906,-0.26562 -1.1562,-0.16406 -2.3438,-0.42188 -3.5625,-0.76562 v -4 c 1.0391,0.51172 2.1133,0.89844 3.2188,1.1562 1.1016,0.25 2.2227,0.375 3.3594,0.375 1.0312,0 1.8047,-0.14062 2.3281,-0.42188 0.51953,-0.28125 0.78125,-0.70312 0.78125,-1.2656 0,-0.46875 -0.18359,-0.81641 -0.54688,-1.0469 -0.35547,-0.22656 -1.0625,-0.40625 -2.125,-0.53125 l -0.9375,-0.125 c -2.3438,-0.28906 -3.9844,-0.83203 -4.9219,-1.625 -0.9375,-0.80078 -1.4062,-2.0078 -1.4062,-3.625 0,-1.7383 0.59375,-3.0312 1.7812,-3.875 1.1953,-0.84375 3.0312,-1.2656 5.5,-1.2656 0.97656,0 2,0.07422 3.0625,0.21875 1.0703,0.14844 2.2344,0.375 3.4844,0.6875 z"
         id="path2272" />
    </symbol>
    <symbol
       id="r"
       overflow="visible">
      <path
         d="m 13.359,-22.875 v 3.4531 h -2.9062 c -0.75,0 -1.2734,0.13672 -1.5625,0.40625 -0.29297,0.27344 -0.4375,0.74219 -0.4375,1.4062 v 1.1406 h 4.5 v 3.7656 h -4.5 v 12.703 H 3.1872 v -12.703 H 0.5778 v -3.7656 h 2.6094 v -1.1406 c 0,-1.7891 0.5,-3.1133 1.5,-3.9688 1,-0.86328 2.5469,-1.2969 4.6406,-1.2969 z"
         id="path2275" />
    </symbol>
    <symbol
       id="q"
       overflow="visible">
      <path
         d="M 19.078,-10.031 V 0 h -5.2812 v -7.6406 c 0,-1.4453 -0.03906,-2.4375 -0.10938,-2.9688 -0.0625,-0.53906 -0.17188,-0.94141 -0.32812,-1.2031 -0.19922,-0.33203 -0.47656,-0.59375 -0.82812,-0.78125 -0.35547,-0.19531 -0.75781,-0.29688 -1.2031,-0.29688 -1.1055,0 -1.9688,0.42969 -2.5938,1.2812 -0.625,0.84375 -0.9375,2.0156 -0.9375,3.5156 V -3e-5 h -5.2656 v -22.875 h 5.2656 v 8.8125 c 0.78906,-0.95703 1.6289,-1.6602 2.5156,-2.1094 0.89453,-0.45703 1.8828,-0.6875 2.9688,-0.6875 1.8945,0 3.332,0.58594 4.3125,1.75 0.98828,1.168 1.4844,2.8594 1.4844,5.0781 z"
         id="path2278" />
    </symbol>
    <symbol
       id="p"
       overflow="visible">
      <path
         d="m 2.7656,-21.953 h 6.3125 l 7.9844,15.062 v -15.062 h 5.375 V 0 H 16.1094 L 8.125,-15.062 V 0 H 2.7656 Z"
         id="path2281" />
    </symbol>
    <symbol
       id="o"
       overflow="visible">
      <path
         d="m 2.3594,-6.4062 v -10.062 h 5.2812 v 1.6562 c 0,0.88672 -0.00781,2.0078 -0.015625,3.3594 -0.011719,1.3438 -0.015625,2.2422 -0.015625,2.6875 0,1.3242 0.035156,2.2773 0.10938,2.8594 0.070312,0.58594 0.19141,1.0117 0.35938,1.2812 0.20703,0.34375 0.48438,0.60938 0.82812,0.79688 0.35156,0.17969 0.75391,0.26562 1.2031,0.26562 1.1016,0 1.9688,-0.42188 2.5938,-1.2656 0.625,-0.84372 0.9375,-2.0156 0.9375,-3.5156 v -8.125 h 5.2656 V 8e-4 h -5.2656 v -2.375 c -0.79297,0.96094 -1.6328,1.668 -2.5156,2.125 -0.88672,0.44531 -1.8672,0.67188 -2.9375,0.67188 -1.8984,0 -3.3438,-0.58203 -4.3438,-1.75 -0.99219,-1.1641 -1.4844,-2.8594 -1.4844,-5.0781 z"
         id="path2284" />
    </symbol>
    <symbol
       id="n"
       overflow="visible">
      <path
         d="m 2.7656,-21.953 h 9.3906 c 2.7891,0 4.9297,0.62109 6.4219,1.8594 1.5,1.2422 2.25,3.0078 2.25,5.2969 0,2.3125 -0.75,4.0898 -2.25,5.3281 -1.4922,1.2422 -3.6328,1.8594 -6.4219,1.8594 H 8.4218 V 2e-4 H 2.7656 Z m 5.6562,4.1094 v 6.125 h 3.1406 c 1.0938,0 1.9375,-0.26562 2.5312,-0.79688 0.60156,-0.53125 0.90625,-1.2891 0.90625,-2.2812 0,-0.97656 -0.30469,-1.7266 -0.90625,-2.25 -0.59375,-0.53125 -1.4375,-0.79688 -2.5312,-0.79688 z"
         id="path2287" />
    </symbol>
    <symbol
       id="m"
       overflow="visible">
      <path
         d="m 2.5312,-16.469 h 5.2656 v 16.172 c 0,2.207 -0.53125,3.8906 -1.5938,5.0469 -1.0625,1.1641 -2.5938,1.75 -4.5938,1.75 H -1.0002 V 3.0468 h 0.90625 c 1,0 1.6875,-0.23047 2.0625,-0.6875 0.375,-0.44922 0.5625,-1.3359 0.5625,-2.6562 z m 0,-6.4062 h 5.2656 v 4.2969 H 2.5312 Z"
         id="path2290" />
    </symbol>
  </defs>
  <g
     id="g2365"
     transform="translate(-79.030283,-73.128475)">
    <path
       d="M 477.41,453 H 224.15 c -26.227,-0.004 -51.586,-9.4062 -71.477,-26.5 -19.891,-17.09 -33.004,-40.742 -36.957,-66.668 -3.957,-25.926 1.5078,-52.414 15.398,-74.656 1.8594,-2.9648 2.7578,-6.4336 2.5625,-9.9258 -0.19141,-3.4961 -1.4648,-6.8438 -3.6406,-9.5859 -11.156,-13.988 -17.203,-31.367 -17.137,-49.262 0.0312,-21.043 8.4023,-41.215 23.281,-56.094 14.8787,-14.879 35.051,-23.254 56.094,-23.281 17.277,-0.0547 34.094,5.5859 47.844,16.047 3.5625,2.6953 8.0469,3.875 12.477,3.2773 4.4297,-0.59766 8.4453,-2.918 11.168,-6.4609 18.727,-24.391 46.832,-39.801 77.465,-42.477 30.633,-2.6758 60.984,7.625 83.656,28.402 22.672,20.773 35.582,50.109 35.59,80.859 -0.008,4.4922 1.7734,8.8047 4.9492,11.988 3.1797,3.1797 7.4883,4.9648 11.984,4.9648 39.188,0 75.402,20.91 94.996,54.848 19.594,33.941 19.594,75.754 0,109.7 -19.594,33.938 -55.809,54.848 -94.996,54.848 z m 16.043,-252.36 h -0.004 c -4.0898,-36.336 -21.891,-69.742 -49.77,-93.402 -27.879,-23.66 -63.734,-35.789 -100.25,-33.922 -36.516,1.8711 -70.945,17.605 -96.258,43.992 -35.09,-19.414 -77.824,-18.832 -112.37,1.5312 -34.543,20.359 -55.753996,57.465 -55.769996,97.562 -0.08203,21.543 6.0586,42.648 17.68,60.789 -23.078,44.508 -21.273,97.828 4.765596,140.67 26.039,42.844 72.539,69.004 122.68,69.016 h 253.26 c 49.375,-0.0156 95.277,-25.398 121.54,-67.207 26.262,-41.812 29.195,-94.184 7.7695,-138.67 -21.426,-44.484 -64.203,-74.836 -113.27,-80.363 z"
       fill-rule="evenodd"
       id="path2295"
       style="fill:#f5f5f5;fill-opacity:1" />
  </g>
</svg>
