<?xml version="1.0" encoding="UTF-8" standalone="no"?>
<svg
   width="558.16345pt"
   height="401.77545pt"
   version="1.1"
   viewBox="0 0 558.16345 401.77545"
   id="svg2453"
   sodipodi:docname="clouds.svg"
   inkscape:version="1.1.2 (0a00cf5, 2022-02-04)"
   xmlns:inkscape="http://www.inkscape.org/namespaces/inkscape"
   xmlns:sodipodi="http://sodipodi.sourceforge.net/DTD/sodipodi-0.dtd"
   xmlns="http://www.w3.org/2000/svg"
   xmlns:svg="http://www.w3.org/2000/svg">
  <defs
     id="defs2457" />
  <sodipodi:namedview
     id="namedview2455"
     pagecolor="#ffffff"
     bordercolor="#666666"
     borderopacity="1.0"
     inkscape:pageshadow="2"
     inkscape:pageopacity="0.0"
     inkscape:pagecheckerboard="0"
     inkscape:document-units="pt"
     showgrid="false"
     inkscape:zoom="0.73071429"
     inkscape:cx="-47.898338"
     inkscape:cy="465.29814"
     inkscape:window-width="1920"
     inkscape:window-height="1031"
     inkscape:window-x="0"
     inkscape:window-y="25"
     inkscape:window-maximized="1"
     inkscape:current-layer="svg2453"
     fit-margin-top="0"
     fit-margin-left="0"
     fit-margin-right="0"
     fit-margin-bottom="0" />
  <path
     d="m 26.903533,378.18544 c 15.168,15.445 35.98,23.59 60.199,23.59 h 280.929997 1.6562 c 45.078,0 82.879,-33.062 90.742,-76.16 h 5.4844 1.6562 c 23.59,0 45.875,-8.9844 62.883,-25.41 17.406,-16.801 27.254,-39.387 27.695,-63.605 0.86328,-49.234 -37.918,-90.16 -86.871,-92.168 -1.0977,-17.523 -8.3086,-33.926 -20.648,-46.691003 -13.766,-14.258 -32.246,-22.309 -52.035,-22.656 -0.95703,-0.0234 -2.0078,0 -3.0352,0 -13.113,-43.773 -52.805,-74.246 -99.168,-75.062 -0.60547,0 -1.2383,-0.02344 -1.8672,-0.02344 -44.215,0 -83.488,27.999997 -98.676,69.183997 -1.043,0.004 -1.9062,-0.043 -3.1641,-0.0664 -47.691,0 -89.809,31.940996 -103.249997,77.093996 -34.836,-1.6602 -64.68,26.785 -64.68,61.832 0,9.5898 2.2148,18.945 6.418,27.441 -19.414,17.219 -30.6879997,41.273 -31.1519997,67.199 -0.53516,30.027 9.2617,57.562 26.8789997,75.504 z M 296.10353,18.735437 c 40.438,0.72266 74.691,28.84 83.301,68.367 1.0039,4.7383 5.3438,7.8164 10.383,7.2812 2.7305,-0.375 5.3906,-0.62891 8.4688,-0.58203 30.613,0.53516 55.043,25.898003 54.508,56.512003 l 9.332,0.16406 -9.3086,2.543 c -0.16406,2.543 0.72266,5.0391 2.4492,6.9297 1.7031,1.8672 4.1523,2.9648 6.6953,3.0117 l 6.8828,0.11719 c 39.645,0.72266 71.352,33.578 70.629,73.242 -0.35156,19.227 -8.1445,37.148 -21.957,50.516 -13.859,13.348 -31.617,20.488 -51.426,20.16 h -4.2227 c -1.2383,-48.512 -39.809,-88.223 -88.527,-90.113 -2.4258,-38.941 -34.535,-70.234 -75.25,-70.98 -0.72266,0 -1.4688,0 -2.2148,0.0469 -11.34,-37.895 -42.512,-66.195003 -81.035,-74.270003 13.742,-32.27 45.684,-54.133005 81.293,-52.945005 z M 48.833533,245.18544 c 4.0352,-2.9883 4.9688,-8.6094 2.1484,-12.762 -4.9453,-7.2344 -7.5352,-15.68 -7.5352,-24.383 0,-23.848 19.391,-43.262 43.262,-43.262 2.7539,0 5.4141,0.32812 8.0508,0.81641 4.875,1.0273 9.800797,-2.2852 10.851997,-7.2344 8.6562,-40.902 45.266,-70.582003 88.668,-70.582003 h 0.0234 c 2.8242,0.0469 5.5781,0.23438 8.2852,0.51172 38.012,4.1992 68.996,32.152003 77.164,69.578003 1.0273,4.7617 5.3438,7.8398 10.383,7.2812 2.5898,-0.375 5.2266,-0.60547 8.6094,-0.60547 h 0.11719 c 31.43,0.55859 56.535,26.602 55.953,58.031 l 9.332,0.16406 -9.3086,2.6367 c -0.16406,2.543 0.72266,5.0391 2.4492,6.9062 1.7266,1.8906 4.1523,2.9648 6.6953,3.0117 l 7.0469,0.11719 c 40.691,0.72266 73.219,34.441 72.473,75.133 -0.69922,39.992 -33.809,72.52 -73.805,72.52 H 87.107523 c -19.367,0 -35.141,-6.0664 -46.875,-18.012 -14.141002,-14.398 -21.980002,-37.031 -21.535002,-62.113 0.38672,-22.777 11.402002,-43.867 30.137002,-57.754 z"
     id="path2451"
     style="fill:#f5f5f5;fill-opacity:1" />
</svg>
