<?xml version="1.0" encoding="UTF-8" standalone="no"?>
<svg
   width="244.36627mm"
   height="187.53905mm"
   version="1.1"
   viewBox="0 0 692.6918 531.60676"
   id="svg2161"
   sodipodi:docname="logo.svg"
   inkscape:version="1.1.2 (0a00cf5, 2022-02-04)"
   xmlns:inkscape="http://www.inkscape.org/namespaces/inkscape"
   xmlns:sodipodi="http://sodipodi.sourceforge.net/DTD/sodipodi-0.dtd"
   xmlns="http://www.w3.org/2000/svg"
   xmlns:svg="http://www.w3.org/2000/svg">
  <sodipodi:namedview
     id="namedview2163"
     pagecolor="#ffffff"
     bordercolor="#666666"
     borderopacity="1.0"
     inkscape:pageshadow="2"
     inkscape:pageopacity="0.0"
     inkscape:pagecheckerboard="0"
     inkscape:document-units="pt"
     showgrid="false"
     inkscape:zoom="0.885"
     inkscape:cx="219.20904"
     inkscape:cy="266.66667"
     inkscape:window-width="1920"
     inkscape:window-height="1031"
     inkscape:window-x="0"
     inkscape:window-y="25"
     inkscape:window-maximized="1"
     inkscape:current-layer="g2159"
     units="mm"
     fit-margin-top="0"
     fit-margin-left="0"
     fit-margin-right="0"
     fit-margin-bottom="0" />
  <defs
     id="defs2077">
    <symbol
       id="w"
       overflow="visible">
      <path
         d="m 18.766,-1.125 c -0.96875,0.5 -1.9805,0.875 -3.0312,1.125 -1.043,0.25781 -2.1367,0.39062 -3.2812,0.39062 -3.3984,0 -6.0898,-0.94531 -8.0781,-2.8438 -1.9922,-1.9062 -2.9844,-4.4844 -2.9844,-7.7344 0,-3.2578 0.99219,-5.8359 2.9844,-7.7344 1.9883,-1.9062 4.6797,-2.8594 8.0781,-2.8594 1.1445,0 2.2383,0.13281 3.2812,0.39062 1.0508,0.25 2.0625,0.625 3.0312,1.125 v 4.2188 c -0.98047,-0.65625 -1.9453,-1.1406 -2.8906,-1.4531 -0.94922,-0.3125 -1.9492,-0.46875 -3,-0.46875 -1.875,0 -3.3516,0.60547 -4.4219,1.8125 -1.0742,1.1992 -1.6094,2.8555 -1.6094,4.9688 0,2.1055 0.53516,3.7617 1.6094,4.9688 1.0703,1.1992 2.5469,1.7969 4.4219,1.7969 1.0508,0 2.0508,-0.14844 3,-0.45312 0.94531,-0.3125 1.9102,-0.80078 2.8906,-1.4688 z"
         id="path2008" />
    </symbol>
    <symbol
       id="c"
       overflow="visible">
      <path
         d="m 13.734,-11.141 c -0.4375,-0.19531 -0.87109,-0.34375 -1.2969,-0.4375 -0.41797,-0.10156 -0.83984,-0.15625 -1.2656,-0.15625 -1.2617,0 -2.2305,0.40625 -2.9062,1.2188 -0.67969,0.80469 -1.0156,1.9531 -1.0156,3.4531 v 7.0625 H 2.3591 v -15.312 h 4.8906 v 2.5156 c 0.625,-1 1.3438,-1.7266 2.1562,-2.1875 0.82031,-0.46875 1.8008,-0.70312 2.9375,-0.70312 0.16406,0 0.34375,0.01172 0.53125,0.03125 0.19531,0.01172 0.47656,0.03906 0.84375,0.07813 z"
         id="path2011" />
    </symbol>
    <symbol
       id="a"
       overflow="visible">
      <path
         d="m 17.641,-7.7031 v 1.4062 H 6.188 c 0.125,1.1484 0.53906,2.0078 1.25,2.5781 0.70703,0.57422 1.7031,0.85938 2.9844,0.85938 1.0312,0 2.082,-0.14844 3.1562,-0.45312 1.082,-0.3125 2.1914,-0.77344 3.3281,-1.3906 v 3.7656 c -1.1562,0.4375 -2.3125,0.76562 -3.4688,0.98438 -1.1562,0.22656 -2.3125,0.34375 -3.4688,0.34375 -2.7734,0 -4.9297,-0.70312 -6.4688,-2.1094 -1.5312,-1.4062 -2.2969,-3.3789 -2.2969,-5.9219 0,-2.5 0.75391,-4.4609 2.2656,-5.8906 1.5078,-1.4375 3.582,-2.1562 6.2188,-2.1562 2.4062,0 4.332,0.73047 5.7812,2.1875 1.4453,1.4492 2.1719,3.3828 2.1719,5.7969 z m -5.0312,-1.625 c 0,-0.92578 -0.27344,-1.6719 -0.8125,-2.2344 -0.54297,-0.57031 -1.25,-0.85938 -2.125,-0.85938 -0.94922,0 -1.7188,0.26562 -2.3125,0.79688 -0.5937,0.53126 -0.96484,1.2969 -1.1094,2.2969 z"
         id="path2014" />
    </symbol>
    <symbol
       id="f"
       overflow="visible">
      <path
         d="m 9.2188,-6.8906 c -1.0234,0 -1.793,0.17188 -2.3125,0.51562 -0.51172,0.34375 -0.76562,0.85547 -0.76562,1.5312 0,0.625 0.20703,1.1172 0.625,1.4688 0.41406,0.34375 0.98828,0.51562 1.7188,0.51562 0.92578,0 1.7031,-0.32812 2.3281,-0.98438 0.63281,-0.66406 0.95312,-1.4922 0.95312,-2.4844 v -0.5625 z m 7.4688,-1.8438 V 0 h -4.9219 v -2.2656 c -0.65625,0.92969 -1.3984,1.6055 -2.2188,2.0312 -0.82422,0.41406 -1.8242,0.625 -3,0.625 -1.5859,0 -2.8711,-0.45703 -3.8594,-1.375 -0.99219,-0.92578 -1.4844,-2.1289 -1.4844,-3.6094 0,-1.7891 0.61328,-3.1016 1.8438,-3.9375 1.2383,-0.84375 3.1797,-1.2656 5.8281,-1.2656 h 2.8906 v -0.39062 c 0,-0.76953 -0.30859,-1.332 -0.92188,-1.6875 -0.61719,-0.36328 -1.5703,-0.54688 -2.8594,-0.54688 -1.0547,0 -2.0312,0.10547 -2.9375,0.3125 -0.89844,0.21094 -1.7305,0.52344 -2.5,0.9375 v -3.7344 c 1.0391,-0.25 2.0859,-0.44141 3.1406,-0.57812 1.0625,-0.13281 2.125,-0.20312 3.1875,-0.20312 2.7578,0 4.75,0.54688 5.9688,1.6406 1.2266,1.0859 1.8438,2.8555 1.8438,5.3125 z"
         id="path2017" />
    </symbol>
    <symbol
       id="b"
       overflow="visible">
      <path
         d="m 7.7031,-19.656 v 4.3438 H 12.75 v 3.5 H 7.7031 v 6.5 c 0,0.71094 0.14062,1.1875 0.42188,1.4375 0.28126,0.25 0.83594,0.375 1.6719,0.375 h 2.5156 v 3.5 h -4.1875 c -1.9375,0 -3.3125,-0.39844 -4.125,-1.2031 -0.80469,-0.8125 -1.2031,-2.1797 -1.2031,-4.1094 v -6.5 h -2.4219 v -3.5 h 2.4219 v -4.3438 z"
         id="path2020" />
    </symbol>
    <symbol
       id="m"
       overflow="visible">
      <path
         d="m 12.766,-13.078 v -8.2031 h 4.9219 V -1e-4 H 12.766 v -2.2188 c -0.66797,0.90625 -1.4062,1.5703 -2.2188,1.9844 -0.8126,0.4141 -1.7578,0.625 -2.8281,0.625 -1.8867,0 -3.4336,-0.75 -4.6406,-2.25 -1.2109,-1.5 -1.8125,-3.4258 -1.8125,-5.7812 0,-2.3633 0.60156,-4.2969 1.8125,-5.7969 1.207,-1.5 2.7539,-2.25 4.6406,-2.25 1.0625,0 2,0.21484 2.8125,0.64062 0.82031,0.42969 1.5664,1.0859 2.2344,1.9688 z m -3.2188,9.9219 c 1.0391,0 1.8359,-0.37891 2.3906,-1.1406 0.55078,-0.76953 0.82812,-1.8828 0.82812,-3.3438 0,-1.457 -0.27734,-2.5664 -0.82812,-3.3281 -0.55469,-0.76953 -1.3516,-1.1562 -2.3906,-1.1562 -1.043,0 -1.8398,0.38672 -2.3906,1.1562 -0.55469,0.76172 -0.82812,1.8711 -0.82812,3.3281 0,1.4609 0.27344,2.5742 0.82812,3.3438 0.55078,0.76172 1.3477,1.1406 2.3906,1.1406 z"
         id="path2023" />
    </symbol>
    <symbol
       id="l"
       overflow="visible">
      <path
         d="m 10.5,-3.1562 c 1.0508,0 1.8516,-0.37891 2.4062,-1.1406 0.55078,-0.76953 0.82812,-1.8828 0.82812,-3.3438 0,-1.457 -0.27734,-2.5664 -0.82812,-3.3281 -0.55469,-0.76953 -1.3555,-1.1562 -2.4062,-1.1562 -1.0547,0 -1.8594,0.38672 -2.4219,1.1562 -0.55469,0.77344 -0.82812,1.8828 -0.82812,3.3281 0,1.4492 0.27344,2.5586 0.82812,3.3281 0.5625,0.77344 1.3672,1.1562 2.4219,1.1562 z m -3.25,-9.9219 c 0.67578,-0.88281 1.4219,-1.5391 2.2344,-1.9688 0.82031,-0.42578 1.7656,-0.64062 2.8281,-0.64062 1.8945,0 3.4453,0.75 4.6562,2.25 1.207,1.5 1.8125,3.4336 1.8125,5.7969 0,2.3555 -0.60547,4.2812 -1.8125,5.7812 -1.2109,1.5 -2.7617,2.25 -4.6562,2.25 -1.0625,0 -2.0078,-0.21094 -2.8281,-0.625 C 8.6719,-0.6602 7.9258,-1.32032 7.25,-2.21882 V -2e-5 H 2.3594 v -21.281 H 7.25 Z"
         id="path2026" />
    </symbol>
    <symbol
       id="k"
       overflow="visible">
      <path
         d="m 0.34375,-15.312 h 4.8906 l 4.125,10.391 3.5,-10.391 h 4.8906 l -6.4375,16.766 c -0.64844,1.6953 -1.4023,2.8828 -2.2656,3.5625 -0.86719,0.6875 -2,1.0312 -3.4062,1.0312 H 2.79685 V 2.8289 h 1.5312 c 0.83203,0 1.4375,-0.13672 1.8125,-0.40625 C 6.52336,2.16093 6.82024,1.69218 7.03117,1.01645 L 7.17179,0.59457 Z"
         id="path2029" />
    </symbol>
    <symbol
       id="j"
       overflow="visible">
      <path
         d="m 16.781,-19.766 v 4.3125 c -1.125,-0.5 -2.2266,-0.875 -3.2969,-1.125 -1.0625,-0.25781 -2.0703,-0.39062 -3.0156,-0.39062 -1.25,0 -2.1797,0.17969 -2.7812,0.53125 -0.60547,0.34375 -0.90625,0.88281 -0.90625,1.6094 0,0.54297 0.20312,0.96875 0.60938,1.2812 0.40625,0.30469 1.1406,0.5625 2.2031,0.78125 l 2.25,0.45312 c 2.2695,0.44922 3.8789,1.1406 4.8281,2.0781 0.95703,0.92969 1.4375,2.2461 1.4375,3.9531 0,2.25 -0.66797,3.9297 -2,5.0312 -1.3359,1.0938 -3.3711,1.6406 -6.1094,1.6406 -1.3047,0 -2.6055,-0.125 -3.9062,-0.375 -1.3047,-0.23828 -2.6055,-0.59766 -3.9062,-1.0781 v -4.4531 c 1.3008,0.69922 2.5625,1.2266 3.7812,1.5781 1.2188,0.34375 2.3906,0.51562 3.5156,0.51562 1.1562,0 2.0352,-0.1875 2.6406,-0.5625 0.61328,-0.38281 0.92188,-0.9375 0.92188,-1.6562 0,-0.63281 -0.21094,-1.125 -0.625,-1.4688 -0.41797,-0.34375 -1.2461,-0.65625 -2.4844,-0.9375 l -2.0312,-0.4375 c -2.043,-0.4375 -3.5391,-1.1328 -4.4844,-2.0938 -0.9375,-0.95703 -1.4062,-2.25 -1.4062,-3.875 0,-2.0312 0.65625,-3.5938 1.9688,-4.6875 1.31255,-1.0937 3.1953,-1.6406 5.6562,-1.6406 1.125,0 2.2734,0.08594 3.4531,0.25 1.1875,0.16797 2.4141,0.42188 3.6875,0.76562 z"
         id="path2032" />
    </symbol>
    <symbol
       id="i"
       overflow="visible">
      <path
         d="m 12.422,-21.281 v 3.2188 H 9.7189 c -0.6875,0 -1.1719,0.125 -1.4531,0.375 -0.27344,0.25 -0.40625,0.6875 -0.40625,1.3125 v 1.0625 h 4.1875 v 3.5 H 7.85955 V -2e-4 h -4.8906 v -11.812 h -2.4375 v -3.5 h 2.4375 v -1.0625 c 0,-1.6641 0.46094,-2.8984 1.3906,-3.7031 0.92578,-0.80078 2.3672,-1.2031 4.3281,-1.2031 z"
         id="path2035" />
    </symbol>
    <symbol
       id="e"
       overflow="visible">
      <path
         d="m 2.1875,-5.9688 v -9.3438 h 4.9219 v 1.5312 c 0,0.83594 -0.00781,1.875 -0.015625,3.125 -0.011719,1.25 -0.015625,2.0859 -0.015625,2.5 0,1.2422 0.03125,2.1328 0.09375,2.6719 0.070313,0.54297 0.17969,0.93359 0.32812,1.1719 0.20703,0.32422 0.47266,0.57422 0.79688,0.75 0.32031,0.16797 0.69141,0.25 1.1094,0.25 1.0195,0 1.8203,-0.39062 2.4062,-1.1719 0.58203,-0.78125 0.875,-1.8672 0.875,-3.2656 v -7.5625 h 4.8906 V -6e-4 H 12.6875 V -2.2194 C 11.94531,-1.32096 11.1641,-0.6608 10.3437,-0.235 9.51948,0.17906 8.6093,0.39 7.6093,0.39 5.8476,0.39 4.5038,-0.14906 3.5781,-1.235 2.64841,-2.317 2.1875,-3.8952 2.1875,-5.9694 Z"
         id="path2038" />
    </symbol>
    <symbol
       id="h"
       overflow="visible">
      <path
         d="M 2.3594,-21.281 H 7.25 V 0 H 2.3594 Z"
         id="path2041" />
    </symbol>
    <symbol
       id="v"
       overflow="visible">
      <path
         d="m 2.5781,-20.406 h 6.6875 l 4.6562,10.922 4.6719,-10.922 h 6.6875 V 0 H 20.2968 V -14.938 L 15.5937,-3.922 H 12.2656 L 7.5625,-14.938 V 0 H 2.5781 Z"
         id="path2044" />
    </symbol>
    <symbol
       id="u"
       overflow="visible">
      <path
         d="m 14.312,-14.828 v 3.7188 c -1.043,-0.4375 -2.0547,-0.76562 -3.0312,-0.98438 -0.98047,-0.21875 -1.9023,-0.32812 -2.7656,-0.32812 -0.92969,0 -1.6211,0.11719 -2.0781,0.34375 -0.44922,0.23047 -0.67188,0.58984 -0.67188,1.0781 0,0.38672 0.17188,0.68359 0.51562,0.89062 0.34375,0.21094 0.95703,0.36719 1.8438,0.46875 l 0.85938,0.125 c 2.5078,0.32422 4.1953,0.85156 5.0625,1.5781 0.86328,0.73047 1.2969,1.8711 1.2969,3.4219 0,1.6367 -0.60547,2.8672 -1.8125,3.6875 -1.1992,0.8125 -2.9922,1.2188 -5.375,1.2188 -1.0234,0 -2.0742,-0.078125 -3.1562,-0.23438 -1.0742,-0.15625 -2.1797,-0.39453 -3.3125,-0.71875 v -3.7188 c 0.96875,0.48047 1.9609,0.83984 2.9844,1.0781 1.0312,0.23047 2.0781,0.34375 3.1406,0.34375 0.95703,0 1.6758,-0.12891 2.1562,-0.39062 0.47656,-0.26953 0.71875,-0.66406 0.71875,-1.1875 0,-0.4375 -0.16797,-0.75781 -0.5,-0.96875 -0.33594,-0.21875 -0.99609,-0.38281 -1.9844,-0.5 L 7.34339,-6.01551 c -2.1797,-0.26953 -3.7031,-0.77344 -4.5781,-1.5156 -0.875,-0.73828 -1.3125,-1.8594 -1.3125,-3.3594 0,-1.625 0.55078,-2.8281 1.6562,-3.6094 1.1133,-0.78906 2.8203,-1.1875 5.125,-1.1875 0.89453,0 1.8359,0.07422 2.8281,0.21875 1,0.13672 2.082,0.35156 3.25,0.64062 z"
         id="path2047" />
    </symbol>
    <symbol
       id="t"
       overflow="visible">
      <path
         d="M 2.3594,-15.312 H 7.25 V 0 H 2.3594 Z m 0,-5.9688 H 7.25 v 4 H 2.3594 Z"
         id="path2050" />
    </symbol>
    <symbol
       id="g"
       overflow="visible">
      <path
         d="m 16.547,-12.766 c 0.61328,-0.94531 1.3477,-1.6719 2.2031,-2.1719 0.85156,-0.5 1.7891,-0.75 2.8125,-0.75 1.7578,0 3.0977,0.54688 4.0156,1.6406 0.92578,1.0859 1.3906,2.6562 1.3906,4.7188 V -4e-4 h -4.9219 v -7.9844 -0.35938 c 0.0078,-0.13281 0.01563,-0.32031 0.01563,-0.5625 0,-1.082 -0.16406,-1.8633 -0.48438,-2.3438 -0.3125,-0.48828 -0.82422,-0.73438 -1.5312,-0.73438 -0.92969,0 -1.6484,0.38672 -2.1562,1.1562 -0.51172,0.76172 -0.77344,1.8672 -0.78125,3.3125 v 7.5156 h -4.9219 v -7.9844 c 0,-1.6953 -0.14844,-2.7852 -0.4375,-3.2656 -0.29297,-0.48828 -0.8125,-0.73438 -1.5625,-0.73438 -0.9375,0 -1.6641,0.38672 -2.1719,1.1562 -0.51172,0.76172 -0.76562,1.8594 -0.76562,3.2969 v 7.5312 h -4.9219 v -15.312 h 4.9219 v 2.2344 c 0.60156,-0.86328 1.2891,-1.5156 2.0625,-1.9531 0.78125,-0.4375 1.6406,-0.65625 2.5781,-0.65625 1.0625,0 2,0.25781 2.8125,0.76562 0.8125,0.51172 1.4258,1.2305 1.8438,2.1562 z"
         id="path2053" />
    </symbol>
    <symbol
       id="d"
       overflow="visible">
      <path
         d="m 9.6406,-12.188 c -1.0859,0 -1.9141,0.39062 -2.4844,1.1719 -0.57422,0.78125 -0.85938,1.9062 -0.85938,3.375 0,1.4688 0.28516,2.5938 0.85938,3.375 0.57031,0.77344 1.3984,1.1562 2.4844,1.1562 1.0625,0 1.875,-0.38281 2.4375,-1.1562 0.57031,-0.78125 0.85938,-1.9062 0.85938,-3.375 0,-1.4688 -0.28906,-2.5938 -0.85938,-3.375 -0.5625,-0.78125 -1.375,-1.1719 -2.4375,-1.1719 z m 0,-3.5 c 2.6328,0 4.6914,0.71484 6.1719,2.1406 1.4766,1.418 2.2188,3.3867 2.2188,5.9062 0,2.5117 -0.74219,4.4805 -2.2188,5.9062 C 14.332,-0.317 12.2734,0.39 9.6406,0.39 6.9922,0.39 4.9258,-0.31703 3.4375,-1.735 1.9453,-3.1608 1.2031,-5.1295 1.2031,-7.6412 c 0,-2.5195 0.74219,-4.4883 2.2344,-5.9062 1.4883,-1.4258 3.5547,-2.1406 6.2031,-2.1406 z"
         id="path2056" />
    </symbol>
    <symbol
       id="s"
       overflow="visible">
      <path
         d="M 17.75,-9.3281 V 0 h -4.9219 v -7.1094 c 0,-1.3438 -0.03125,-2.2656 -0.09375,-2.7656 -0.0625,-0.5 -0.16797,-0.86719 -0.3125,-1.1094 -0.1875,-0.3125 -0.44922,-0.55469 -0.78125,-0.73438 -0.32422,-0.17578 -0.69531,-0.26562 -1.1094,-0.26562 -1.0234,0 -1.8242,0.39844 -2.4062,1.1875 -0.58594,0.78125 -0.875,1.8711 -0.875,3.2656 V -1e-4 H 2.3594 v -21.281 H 7.25 v 8.2031 c 0.73828,-0.88281 1.5195,-1.5391 2.3438,-1.9688 0.83203,-0.42578 1.75,-0.64062 2.75,-0.64062 1.7695,0 3.1133,0.54688 4.0312,1.6406 0.91406,1.0859 1.375,2.6562 1.375,4.7188 z"
         id="path2059" />
    </symbol>
    <symbol
       id="r"
       overflow="visible">
      <path
         d="m 2.5781,-20.406 h 5.875 l 7.4219,14 v -14 h 4.9844 V 0 h -5.875 L 7.5625,-14 V 0 H 2.5781 Z"
         id="path2062" />
    </symbol>
    <symbol
       id="q"
       overflow="visible">
      <path
         d="M 17.75,-9.3281 V 0 h -4.9219 v -7.1406 c 0,-1.3203 -0.03125,-2.2344 -0.09375,-2.7344 -0.0625,-0.5 -0.16797,-0.86719 -0.3125,-1.1094 -0.1875,-0.3125 -0.44922,-0.55469 -0.78125,-0.73438 -0.32422,-0.17578 -0.69531,-0.26562 -1.1094,-0.26562 -1.0234,0 -1.8242,0.39844 -2.4062,1.1875 -0.58594,0.78125 -0.875,1.8711 -0.875,3.2656 V -1e-4 H 2.3594 v -15.312 H 7.25 v 2.2344 c 0.73828,-0.88281 1.5195,-1.5391 2.3438,-1.9688 0.83203,-0.42578 1.75,-0.64062 2.75,-0.64062 1.7695,0 3.1133,0.54688 4.0312,1.6406 0.91406,1.0859 1.375,2.6562 1.375,4.7188 z"
         id="path2065" />
    </symbol>
    <symbol
       id="p"
       overflow="visible">
      <path
         d="m 2.5781,-20.406 h 8.7344 c 2.5938,0 4.582,0.57812 5.9688,1.7344 1.3945,1.1484 2.0938,2.7891 2.0938,4.9219 0,2.1367 -0.69922,3.7812 -2.0938,4.9375 -1.3867,1.1562 -3.375,1.7344 -5.9688,1.7344 H 7.8281 V 3e-4 h -5.25 z m 5.25,3.8125 v 5.7031 H 10.75 c 1.0195,0 1.8047,-0.25 2.3594,-0.75 0.5625,-0.5 0.84375,-1.2031 0.84375,-2.1094 0,-0.91406 -0.28125,-1.6172 -0.84375,-2.1094 -0.55469,-0.48828 -1.3398,-0.73438 -2.3594,-0.73438 z"
         id="path2068" />
    </symbol>
    <symbol
       id="o"
       overflow="visible">
      <path
         d="M 2.3594,-15.312 H 7.25 v 15.031 c 0,2.0508 -0.49609,3.6172 -1.4844,4.7031 -0.98047,1.082 -2.4062,1.625 -4.2812,1.625 H -0.9375 V 2.8283 h 0.85938 c 0.92578,0 1.5625,-0.21094 1.9062,-0.625 0.35156,-0.41797 0.53125,-1.2461 0.53125,-2.4844 z m 0,-5.9688 H 7.25 v 4 H 2.3594 Z"
         id="path2071" />
    </symbol>
    <symbol
       id="n"
       overflow="visible">
      <path
         d="m 14.719,-14.828 v 3.9844 c -0.65625,-0.45703 -1.3242,-0.79688 -2,-1.0156 -0.66797,-0.21875 -1.3594,-0.32812 -2.0781,-0.32812 -1.3672,0 -2.4336,0.40234 -3.2031,1.2031 -0.76172,0.79297 -1.1406,1.9062 -1.1406,3.3438 0,1.4297 0.37891,2.543 1.1406,3.3438 0.76953,0.79297 1.8359,1.1875 3.2031,1.1875 0.75781,0 1.4844,-0.10938 2.1719,-0.32812 0.6875,-0.22656 1.3203,-0.56641 1.9062,-1.0156 v 4 c -0.76172,0.28125 -1.5391,0.48828 -2.3281,0.625 -0.78125,0.14453 -1.5742,0.21875 -2.375,0.21875 -2.7617,0 -4.9219,-0.70703 -6.4844,-2.125 -1.5547,-1.4141 -2.3281,-3.3828 -2.3281,-5.9062 0,-2.5312 0.77344,-4.5039 2.3281,-5.9219 1.5625,-1.4141 3.7227,-2.125 6.4844,-2.125 0.80078,0 1.5938,0.07422 2.375,0.21875 0.78125,0.13672 1.5547,0.35156 2.3281,0.64062 z"
         id="path2074" />
    </symbol>
  </defs>
  <g
     id="g2159"
     transform="translate(-3.6584708,-14.200932)">
    <path
       d="m 494.09349,245.77261 c 10.17924,14.43898 22.52176,44.368 37.03626,89.78176 12.73074,39.10057 26.34539,66.92665 40.8558,83.46857 21.64222,24.66143 52.81896,36.99778 93.54794,36.99778 h 11.0742 c 2.55149,-0.90007 5.34803,-2.41071 8.40557,-4.51302 2.79654,-1.80646 5.59839,-1.50432 8.40025,0.90008 2.54086,2.41071 3.43567,5.57037 2.67395,9.47285 -4.06963,18.0453 -13.3647,33.38517 -27.86448,46.01801 -19.09085,16.84969 -44.04124,25.26567 -74.8348,25.26567 -44.04125,0 -75.72935,-14.73481 -95.07111,-44.21654 -16.29405,-25.56054 -24.43903,-63.4655 -24.43903,-113.69392 l -0.76171,-50.52973 c -1.52877,-5.41311 -4.71408,-10.98348 -9.54543,-16.69178 l -3.43568,-4.05975 -12.9811,40.15759 c -7.38284,23.76069 -11.0742,40.60394 -11.0742,50.52974 0,8.42178 4.71408,17.73753 14.13679,27.9711 12.46974,15.33907 18.70222,27.22344 18.70222,35.64426 0,3.00239 -2.92431,20.45585 -8.77307,52.33604 l -4.96444,28.42549 c -0.76171,4.51302 -3.0469,6.7663 -6.86616,6.7663 H 429.2244 c -2.30113,0 -4.06963,-1.05743 -5.34803,-3.15966 -1.52877,-2.1023 -2.04014,-4.51301 -1.52877,-7.21957 l 1.52877,-8.57276 c 2.29049,-15.94332 3.43567,-26.1648 3.43567,-30.67814 0,-13.23676 -3.31322,-24.96919 -9.93434,-35.19147 -1.26776,-2.10231 -4.45308,-5.70895 -9.54543,-10.82621 l -25.58448,89.78176 c -0.76171,3.91505 -3.18531,5.86621 -7.25493,5.86621 h -21.76495 c -2.54085,0 -4.59162,-1.20219 -6.10975,-3.60664 -1.77913,-2.41071 -2.04013,-4.95984 -0.77238,-7.67267 l 8.40557,-27.9711 c 8.40025,-28.57535 12.59233,-46.77856 12.59233,-54.59029 -2.29049,-5.1047 -11.95838,-14.59013 -29.01947,-28.4255 C 314.402,404.89397 302.4334,383.53738 302.4334,359.46732 v -5.86621 l -6.86617,2.70655 c -23.42175,10.22196 -43.65806,16.69178 -60.70893,19.39882 -0.25035,52.33603 -7.7663,106.92633 -22.52721,163.7757 -1.0174,4.21089 -3.31322,6.31948 -6.87148,6.31948 l -37.819,0.006 c -2.30113,0 -4.20803,-0.90008 -5.72616,-2.70656 -1.52877,-1.80646 -2.16259,-3.90876 -1.90691,-6.31948 3.56358,-58.05787 0,-113.54245 -10.69061,-166.48274 -29.27037,-38.79763 -44.5417,-80.76153 -45.82079,-125.87881 0.25035,-16.23899 0.25035,-32.6359 0,-49.17783 -0.76171,-12.33667 -3.94703,-19.10233 -9.545425,-20.30599 -7.888888,-2.41072 -19.724948,-3.15966 -35.507634,-2.25329 -16.789047,1.50432 -27.362656,1.05744 -31.682644,-1.35326 -3.563582,-2.1023 -8.016661,-7.21957 -13.364693,-15.33907 L 5.3790835,145.16472 c -1.5287687,-2.1023 -2.040131,-4.80886 -1.5287687,-8.11966 0.5060305,-2.70655 1.9069041,-4.80886 4.1973981,-6.31948 C 20.528089,124.11026 31.719015,116.13546 41.648989,106.81343 54.118729,85.456842 67.983465,70.872683 83.261607,63.04967 L 93.952215,20.639431 c 1.273074,-4.210892 3.563582,-6.31948 6.871485,-6.31948 3.3079,-0.597949 5.72616,1.057436 7.2443,4.959839 l 22.52721,56.849378 25.9622,43.310972 c 8.13926,14.43898 21.50449,29.48253 40.08808,45.11727 27.23039,17.73754 45.82079,27.82125 55.74395,30.2318 11.45233,2.70655 25.71129,5.11727 42.76216,7.21957 18.32859,0.59795 38.57035,0.29583 60.70893,-0.90007 24.95039,-2.10231 48.8726,-2.25329 71.78299,-0.45319 24.19903,1.51062 46.33625,16.54193 66.44983,45.11728 z m -67.58028,-27.51832 c -22.39903,-1.50432 -45.68715,-1.35326 -69.86436,0.45319 -23.68222,1.50432 -44.41898,1.80646 -62.23757,0.90007 -17.05086,-1.50432 -32.07264,-3.90876 -45.05306,-7.21957 -11.45234,-2.70655 -31.56128,-13.5326 -60.31894,-32.48443 l -0.77237,-0.45319 C 168.15878,162.60067 153.39882,145.90889 143.97612,129.37341 133.29083,110.42093 124.63435,95.988234 118.01937,86.062433 l -0.77238,-1.35326 -14.12587,-36.997777 -6.109758,23.912156 C 96.238987,74.330105 94.710231,76.28755 92.419737,77.489764 77.92023,84.413494 64.806173,97.945615 53.098022,118.0937 l -1.528769,1.80646 c -7.638525,7.82382 -17.050864,15.18809 -28.253107,22.10586 l 1.906904,3.15966 c 4.069625,6.61532 6.748891,9.92612 8.016661,9.92612 1.273074,1.50432 9.295066,1.6616 24.055846,0.45319 16.039049,-1.2022 29.398559,-0.45319 40.088077,2.25328 12.730736,3.60664 19.596766,15.79234 20.619496,36.54499 0.76171,17.44105 0.76171,34.13445 0,50.07696 2.04013,41.51111 16.5395,80.01226 43.51897,115.50022 0.77238,0.90007 1.40618,2.25329 1.90691,4.05975 10.9516,52.63252 15.02177,107.38072 12.22469,164.22688 h 5.34803 c 10.94097,-56.84938 15.02178,-111.1448 12.21938,-162.87336 v -0.45319 c -0.50603,-10.22196 -1.77913,-23.61567 -3.81926,-40.1576 -0.25035,-2.41071 0.25035,-4.66399 1.52877,-6.7663 1.01739,-1.80646 2.54085,-2.85753 4.58098,-3.15966 2.04013,-0.29582 3.94704,0.29583 5.72617,1.80647 1.77913,0.90007 2.80186,2.56169 3.05222,4.95983 1.52877,11.43047 2.67395,23.15645 3.43567,35.19148 l 2.67395,1.35326 c 4.06963,1.2022 9.54543,1.50432 16.41678,0.90007 15.27132,-1.80646 36.5249,-8.11966 63.76619,-18.95248 l 17.1845,-6.7663 c 18.07359,-7.51541 33.86173,-12.33667 47.34397,-14.43898 l 4.58099,-20.75233 c 0.77237,-2.41071 2.04013,-4.21089 3.81926,-5.41311 1.77913,-1.2022 3.68604,-1.50432 5.72617,-0.90007 1.77913,0.90007 3.18531,2.41071 4.1974,4.51302 1.02272,2.1023 1.27307,4.35559 0.77237,6.7663 l -5.34803,25.26567 v 0.90008 l -1.14523,11.27931 c 0,31.88019 11.45233,58.80715 34.36218,80.76154 l 6.49853,6.31948 0.76171,0.90007 c 10.1847,9.92612 16.67723,16.84969 19.47404,20.75234 9.16197,14.13685 13.7536,29.7774 13.7536,46.92357 0,4.51302 -1.27307,15.18809 -3.81926,32.03166 h 3.0469 l 11.83592,-69.92856 c 0,-0.90007 -0.76171,-2.70655 -2.29049,-5.4131 -2.2905,-4.80886 -6.36012,-10.53037 -12.21938,-17.14618 -11.95838,-14.43898 -17.95086,-28.12901 -17.95086,-41.05672 0,-12.94092 3.95767,-31.88663 11.84656,-56.84938 l 16.78904,-51.43691 c 0.51137,-2.10231 1.77914,-3.60664 3.81927,-4.51302 2.55149,-0.90007 4.71408,-0.74901 6.49853,0.45319 4.31998,2.41071 9.16197,6.92373 14.4995,13.5326 8.66125,10.82621 12.98111,20.45585 12.98111,28.87828 l 1.14523,50.52974 c 0,46.01801 7.00457,80.30875 20.99722,102.86738 16.28859,24.66143 44.16397,36.99778 83.61796,36.99778 27.99674,0 50.14078,-7.21957 66.42937,-21.6579 6.87148,-6.31948 11.9637,-12.78366 15.27132,-19.39882 h -9.54542 c -45.04761,0 -79.67161,-13.98587 -103.85428,-41.95745 C 546.1346,415.24908 531.36918,385.32021 517.37149,342.317 503.11198,298.40178 491.40928,269.83288 482.23613,256.59579 464.94526,232.53217 446.36577,219.75592 426.514,218.25094 Z M 352.8184,337.36067 c -9.41752,1.80647 -21.25358,5.41311 -35.50763,10.82622 v 11.27932 c 0,17.45394 9.79579,33.98942 29.39856,49.63061 14.00451,11.12818 23.68221,20.14809 29.02492,27.07198 4.31999,5.4131 6.49321,10.53037 6.49321,15.33906 0,9.92613 -4.45308,30.2318 -13.36469,60.90994 l -4.58099,15.79233 h 5.72617 l 25.58448,-90.23455 -3.05222,-3.15966 c -26.72993,-25.26567 -40.08808,-56.69308 -40.08808,-94.2951 z m -143.94508,38.80408 c 1.27308,48.72344 -2.92431,99.41108 -12.59233,152.04361 h 3.43036 c 12.9811,-52.33604 19.60222,-102.71592 19.86267,-151.14448 -3.06285,0.30212 -6.63175,0 -10.70138,-0.90008 z"
       fill-rule="evenodd"
       id="path2079"
       style="fill:#ffffff;fill-opacity:1;stroke-width:1.48232" />
  </g>
</svg>
