<?xml version="1.0" encoding="UTF-8" standalone="no"?>
<svg
   width="545.10986pt"
   height="545.10553pt"
   version="1.1"
   viewBox="0 0 545.10986 545.10553"
   id="svg1884"
   sodipodi:docname="snow.svg"
   inkscape:version="1.1.2 (0a00cf5, 2022-02-04)"
   xmlns:inkscape="http://www.inkscape.org/namespaces/inkscape"
   xmlns:sodipodi="http://sodipodi.sourceforge.net/DTD/sodipodi-0.dtd"
   xmlns="http://www.w3.org/2000/svg"
   xmlns:svg="http://www.w3.org/2000/svg">
  <sodipodi:namedview
     id="namedview1886"
     pagecolor="#ffffff"
     bordercolor="#666666"
     borderopacity="1.0"
     inkscape:pageshadow="2"
     inkscape:pageopacity="0.0"
     inkscape:pagecheckerboard="0"
     inkscape:document-units="pt"
     showgrid="false"
     inkscape:zoom="0.73071429"
     inkscape:cx="364.02737"
     inkscape:cy="457.087"
     inkscape:window-width="1920"
     inkscape:window-height="1031"
     inkscape:window-x="0"
     inkscape:window-y="25"
     inkscape:window-maximized="1"
     inkscape:current-layer="g1882"
     fit-margin-top="0"
     fit-margin-left="0"
     fit-margin-right="0"
     fit-margin-bottom="0" />
  <defs
     id="defs1866">
    <symbol
       id="f"
       overflow="visible">
      <path
         d="m 39.906,-2.3906 c -2.0547,1.0742 -4.1953,1.8828 -6.4219,2.4219 -2.2305,0.53906 -4.5586,0.8125 -6.9844,0.8125 -7.2305,0 -12.961,-2.0195 -17.188,-6.0625 -4.2305,-4.0391 -6.3438,-9.5234 -6.3438,-16.453 0,-6.9453 2.1133,-12.441 6.3438,-16.484 4.2266,-4.0391 9.957,-6.0625 17.188,-6.0625 2.4258,0 4.7539,0.27344 6.9844,0.8125 2.2266,0.54297 4.3672,1.3516 6.4219,2.4219 v 8.9844 c -2.0742,-1.4141 -4.1211,-2.4531 -6.1406,-3.1094 -2.0117,-0.66406 -4.1328,-1 -6.3594,-1 -4,0 -7.1484,1.2812 -9.4375,3.8438 -2.2812,2.5625 -3.4219,6.0938 -3.4219,10.594 0,4.4805 1.1406,8 3.4219,10.562 2.2891,2.5625 5.4375,3.8438 9.4375,3.8438 2.2266,0 4.3477,-0.32812 6.3594,-0.98438 2.0195,-0.66406 4.0664,-1.707 6.1406,-3.125 z"
         id="path1848" />
    </symbol>
    <symbol
       id="e"
       overflow="visible">
      <path
         d="m 16.375,-41.828 v 9.25 h 10.734 v 7.4375 H 16.375 v 13.828 c 0,1.5117 0.30078,2.5312 0.90625,3.0625 0.60156,0.53125 1.7969,0.79688 3.5781,0.79688 h 5.3438 V -2e-5 h -8.9219 c -4.1172,0 -7.0312,-0.85938 -8.75,-2.5781 -1.7109,-1.7188 -2.5625,-4.6289 -2.5625,-8.7344 v -13.828 h -5.1875 v -7.4375 h 5.1875 v -9.25 z"
         id="path1851" />
    </symbol>
    <symbol
       id="d"
       overflow="visible">
      <path
         d="M 27.172,-27.812 V -45.265 H 37.641 V 10e-4 H 27.172 v -4.7188 c -1.4375,1.9297 -3.0234,3.3398 -4.75,4.2344 -1.7188,0.88281 -3.7148,1.3281 -5.9844,1.3281 -4.0117,0 -7.3086,-1.5938 -9.8906,-4.7812 -2.5859,-3.1953 -3.875,-7.3047 -3.875,-12.328 0,-5.0195 1.2891,-9.125 3.875,-12.312 2.582,-3.1953 5.8789,-4.7969 9.8906,-4.7969 2.25,0 4.2383,0.45312 5.9688,1.3594 1.7383,0.90625 3.3281,2.3086 4.7656,4.2031 z m -6.8594,21.094 c 2.2266,0 3.9258,-0.8125 5.0938,-2.4375 1.1758,-1.6328 1.7656,-4.0039 1.7656,-7.1094 0,-3.1016 -0.58984,-5.4688 -1.7656,-7.0938 -1.168,-1.625 -2.8672,-2.4375 -5.0938,-2.4375 -2.2188,0 -3.918,0.8125 -5.0938,2.4375 -1.168,1.625 -1.75,3.9922 -1.75,7.0938 0,3.1055 0.58203,5.4766 1.75,7.1094 1.1758,1.625 2.875,2.4375 5.0938,2.4375 z"
         id="path1854" />
    </symbol>
    <symbol
       id="c"
       overflow="visible">
      <path
         d="m 22.344,-6.7188 c 2.2266,0 3.9258,-0.8125 5.0938,-2.4375 1.1758,-1.6328 1.7656,-4.0039 1.7656,-7.1094 0,-3.1016 -0.58984,-5.4688 -1.7656,-7.0938 -1.168,-1.625 -2.8672,-2.4375 -5.0938,-2.4375 -2.2305,0 -3.9453,0.82031 -5.1406,2.4531 -1.1875,1.6367 -1.7812,3.9961 -1.7812,7.0781 0,3.0859 0.59375,5.4492 1.7812,7.0938 1.1953,1.6367 2.9102,2.4531 5.1406,2.4531 z m -6.9219,-21.094 c 1.4375,-1.8945 3.0234,-3.2969 4.7656,-4.2031 1.75,-0.90625 3.7539,-1.3594 6.0156,-1.3594 4.0195,0 7.3164,1.6016 9.8906,4.7969 2.582,3.1875 3.875,7.293 3.875,12.312 0,5.0234 -1.293,9.1328 -3.875,12.328 -2.5742,3.1875 -5.8711,4.7812 -9.8906,4.7812 -2.2617,0 -4.2656,-0.44922 -6.0156,-1.3438 -1.7422,-0.90625 -3.3281,-2.3125 -4.7656,-4.2188 V -0.001 H 5.0001 v -45.266 h 10.422 z"
         id="path1857" />
    </symbol>
    <symbol
       id="b"
       overflow="visible">
      <path
         d="m 5.4688,-43.438 h 14.25 l 9.8906,23.25 9.9531,-23.25 h 14.219 V 0 h -10.578 v -31.766 l -10.016,23.422 h -7.0938 l -10,-23.422 V 0 H 5.4687 Z"
         id="path1860" />
    </symbol>
    <symbol
       id="a"
       overflow="visible">
      <path
         d="M 37.766,-19.844 V 0 H 27.282 v -15.125 c 0,-2.8516 -0.0625,-4.8125 -0.1875,-5.875 -0.125,-1.0703 -0.34375,-1.8594 -0.65625,-2.3594 -0.40625,-0.67578 -0.96094,-1.2031 -1.6562,-1.5781 -0.69922,-0.38281 -1.4922,-0.57812 -2.375,-0.57812 -2.1797,0 -3.8867,0.83984 -5.125,2.5156 -1.2422,1.6797 -1.8594,4 -1.8594,6.9688 v 16.031 h -10.422 v -45.266 h 10.422 v 17.453 c 1.5703,-1.8945 3.2383,-3.2969 5,-4.2031 1.7578,-0.90625 3.707,-1.3594 5.8438,-1.3594 3.7578,0 6.6133,1.1562 8.5625,3.4688 1.957,2.3125 2.9375,5.668 2.9375,10.062 z"
         id="path1863" />
    </symbol>
  </defs>
  <g
     id="g1882"
     transform="translate(-77.445902,-7.4464)">
    <path
       d="m 589.25,297.87 h 15.43 c 9.8672,0 17.871,-8.0078 17.871,-17.871 0,-9.8789 -8.0078,-17.871 -17.871,-17.871 h -15.43 l 29.859,-40.832 c 5.8281,-7.9609 4.0859,-19.148 -3.8711,-24.973 -7.9844,-5.8281 -19.148,-4.0977 -24.984,3.8828 l -45.289,61.922 h -86.336 c -2.8008,-17.062 -9.4961,-32.801 -19.195,-46.289 l 61.062,-61.062 75.816,11.773 c 0.92969,0.14453 1.8594,0.21484 2.7656,0.21484 8.6641,0 16.266,-6.3047 17.633,-15.133 1.5117,-9.7461 -5.1719,-18.887 -14.918,-20.398 l -49.984,-7.7578 10.902,-10.914 c 6.9805,-6.9805 6.9805,-18.301 0,-25.273 -6.9805,-6.9805 -18.289,-6.9805 -25.273,0 l -10.902,10.914 -7.7695,-49.996 c -1.5117,-9.7461 -10.617,-16.348 -20.41,-14.918 -9.7461,1.5117 -16.43,10.652 -14.918,20.41 l 11.773,75.816 -61.062,61.062 c -13.488,-9.6992 -29.215,-16.395 -46.289,-19.195 v -86.348 l 61.934,-45.289 c 7.9609,-5.8281 9.6992,-17.016 3.8711,-24.973 -5.8281,-7.9727 -17.016,-9.6992 -24.984,-3.8828 l -40.809,29.859 v -15.43 c 0,-9.8789 -8.0078,-17.871 -17.871,-17.871 -9.8789,0 -17.871,7.9961 -17.871,17.871 v 15.43 l -40.832,-29.859 c -7.9609,-5.8281 -19.137,-4.0742 -24.973,3.8828 -5.8281,7.9609 -4.0859,19.148 3.8828,24.973 l 61.922,45.289 v 86.336 c -17.062,2.8008 -32.801,9.4961 -46.289,19.195 l -61.062,-61.062 11.773,-75.816 c 1.5117,-9.7461 -5.1719,-18.887 -14.918,-20.398 -9.6875,-1.4414 -18.875,5.1719 -20.398,14.918 l -7.7578,49.984 -10.93,-10.914 c -6.9805,-6.9805 -18.289,-6.9805 -25.273,0 -6.9805,6.9688 -6.9805,18.301 0,25.273 l 10.914,10.914 -49.984,7.7578 c -9.7578,1.5117 -16.43,10.652 -14.918,20.398 1.3711,8.8281 8.9844,15.133 17.633,15.133 0.91797,0 1.8359,-0.0703 2.7656,-0.21484 l 75.816,-11.773 61.062,61.062 c -9.6992,13.488 -16.395,29.227 -19.195,46.289 h -86.332 l -45.289,-61.934 c -5.8281,-7.9727 -17.016,-9.7109 -24.973,-3.8828 -7.9727,5.8281 -9.6992,17.016 -3.8828,24.973 l 29.859,40.855 h -15.43 c -9.8789,0 -17.871,7.9961 -17.871,17.871 0,9.8672 7.9961,17.871 17.871,17.871 h 15.43 l -29.859,40.832 c -5.8281,7.9727 -4.0859,19.148 3.8828,24.984 3.1797,2.3242 6.875,3.4453 10.531,3.4453 5.5039,0 10.938,-2.5391 14.441,-7.3164 l 45.289,-61.945 h 86.336 c 2.8008,17.074 9.4961,32.801 19.195,46.289 l -61.062,61.062 -75.816,-11.773 c -9.7109,-1.4648 -18.887,5.1719 -20.41,14.918 -1.5117,9.7461 5.1719,18.898 14.918,20.41 l 49.996,7.7695 -10.914,10.902 c -6.9805,6.9805 -6.9805,18.289 0,25.273 3.4922,3.4922 8.0664,5.2305 12.641,5.2305 4.5746,0 9.1523,-1.7383 12.641,-5.2305 l 10.914,-10.902 7.7578,49.984 c 1.3711,8.8164 8.9844,15.133 17.633,15.133 0.91797,0 1.8359,-0.0703 2.7656,-0.21484 9.7578,-1.5117 16.43,-10.652 14.918,-20.41 l -11.773,-75.816 61.062,-61.062 c 13.488,9.6992 29.227,16.395 46.289,19.195 v 86.336 l -61.934,45.289 c -7.9727,5.8281 -9.6992,17.016 -3.8828,24.984 3.5039,4.7773 8.9375,7.3164 14.441,7.3164 3.6562,0 7.3516,-1.1211 10.531,-3.4453 l 40.848,-29.859 v 15.43 c 0,9.8672 7.9961,17.871 17.871,17.871 9.8672,0 17.871,-8.0078 17.871,-17.871 v -15.43 l 40.832,29.859 c 3.1914,2.3242 6.875,3.4453 10.543,3.4453 5.5039,0 10.938,-2.5391 14.441,-7.3164 5.8281,-7.9727 4.0859,-19.148 -3.8711,-24.984 l -61.945,-45.289 v -86.336 c 17.074,-2.8008 32.801,-9.4961 46.289,-19.195 l 61.062,61.062 -11.773,75.816 c -1.5117,9.7461 5.1719,18.898 14.918,20.41 0.92969,0.14453 1.8477,0.21484 2.7656,0.21484 8.6641,0 16.266,-6.3047 17.633,-15.133 l 7.7695,-49.984 10.902,10.902 c 3.4922,3.4922 8.0664,5.2305 12.641,5.2305 4.5746,0 9.1523,-1.7383 12.641,-5.2305 6.9805,-6.9805 6.9805,-18.289 0,-25.273 l -10.902,-10.902 49.984,-7.7695 c 9.7461,-1.5117 16.43,-10.664 14.918,-20.41 -1.5117,-9.7344 -10.582,-16.383 -20.41,-14.918 l -75.816,11.773 -61.062,-61.062 c 9.6992,-13.488 16.395,-29.215 19.195,-46.289 h 86.336 l 45.289,61.934 c 3.5039,4.7773 8.9375,7.3164 14.441,7.3164 3.668,0 7.3516,-1.1211 10.543,-3.4453 7.9609,-5.8281 9.6992,-17.016 3.8711,-24.984 z"
       id="path1868"
       style="fill:#f5f5f5;fill-opacity:1" />
  </g>
</svg>
