<?xml version="1.0" encoding="UTF-8" standalone="no"?>
<svg
   width="420.01025pt"
   height="351.49759pt"
   version="1.1"
   viewBox="0 0 420.01025 351.49759"
   id="svg3251"
   sodipodi:docname="sunny.svg"
   inkscape:version="1.1.2 (0a00cf5, 2022-02-04)"
   xmlns:inkscape="http://www.inkscape.org/namespaces/inkscape"
   xmlns:sodipodi="http://sodipodi.sourceforge.net/DTD/sodipodi-0.dtd"
   xmlns="http://www.w3.org/2000/svg"
   xmlns:svg="http://www.w3.org/2000/svg">
  <defs
     id="defs3255" />
  <sodipodi:namedview
     id="namedview3253"
     pagecolor="#ffffff"
     bordercolor="#666666"
     borderopacity="1.0"
     inkscape:pageshadow="2"
     inkscape:pageopacity="0.0"
     inkscape:pagecheckerboard="0"
     inkscape:document-units="pt"
     showgrid="false"
     inkscape:zoom="0.73071429"
     inkscape:cx="-139.58944"
     inkscape:cy="327.07722"
     inkscape:window-width="1920"
     inkscape:window-height="1031"
     inkscape:window-x="0"
     inkscape:window-y="25"
     inkscape:window-maximized="1"
     inkscape:current-layer="svg3251"
     fit-margin-top="0"
     fit-margin-left="0"
     fit-margin-right="0"
     fit-margin-bottom="0" />
  <g
     id="g3249"
     style="fill:#f5f5f5;fill-opacity:1"
     transform="translate(-139.99225,-104.2475)">
    <path
       d="m 419.08,295.31 c -0.0742,1.0586 -0.1875,2.125 -0.33203,3.1992 -0.15234,1.918 -1.1445,3.75 -2.8633,4.9141 l -0.0156,-0.0234 c -3.7383,2.5312 -7.1484,5.5156 -10.152,8.8711 -2.8789,3.2148 -5.3945,6.8047 -7.4805,10.691 l -0.004,0.008 c -1.4844,3.3047 -5.3672,4.78519 -8.6758,3.30079 l 0.008,-0.0195 c -3.4375,-1.543 -7.0898,-2.7422 -10.91,-3.5586 -3.668,-0.78125 -7.5078,-1.1953 -11.48,-1.1953 -8.2109,0 -15.98,1.793 -22.938,5.0078 -7.1094,3.2852 -13.398,8.0508 -18.469,13.906 -1.1953,1.6133 -3.1133,2.6562 -5.2734,2.6562 h -128.53 c -14.316,0 -27.293,-5.7383 -36.699,-15.02 -9.4375,-9.3086 -15.273,-22.16 -15.273,-36.344 0,-14.184 5.8359,-27.035 15.273,-36.344 9.4062,-9.2773 22.383,-15.02 36.699,-15.02 1.9961,0 3.9766,0.11719 5.9414,0.33984 -0.043,-0.20703 -0.0859,-0.41406 -0.125,-0.625 -0.80078,-4.0625 -1.2227,-8.2422 -1.2227,-12.496 0,-17.98 7.3984,-34.273 19.359,-46.07 11.93,-11.77 28.391,-19.047 46.559,-19.047 15.621,0 29.988,5.3867 41.297,14.379 8.9805,7.1445 16.027,16.57 20.238,27.391 1.2344,-0.70312 2.5195,-1.3398 3.8438,-1.8984 4.4375,-1.8789 9.2891,-2.9219 14.34,-2.9219 10.043,0 19.148,4.0312 25.75,10.543 6.6367,6.5469 10.738,15.578 10.738,25.543 0,2 -0.17969,4.0156 -0.52734,6.0234 10.445,2.207 19.727,7.5117 26.801,14.891 8.8398,9.2188 14.258,21.648 14.258,35.316 0,1.125 -0.0469,2.332 -0.13672,3.6094 z m -13.074,-0.92969 c 0.0547,-0.80078 0.0859,-1.6914 0.0859,-2.6797 0,-10.176 -4.0195,-19.41 -10.566,-26.242 -6.6289,-6.9141 -15.832,-11.398 -26.09,-11.953 l 0.33203,-6.5352 -0.35547,6.5547 c -3.6172,-0.19531 -6.3945,-3.2891 -6.1992,-6.9062 0.0508,-0.9375 0.29688,-1.8203 0.69531,-2.6055 0.52734,-1.293 0.93359,-2.6211 1.2109,-3.9688 0.28906,-1.4062 0.44141,-2.9336 0.44141,-4.5703 0,-6.3398 -2.5938,-12.074 -6.793,-16.211 -4.2266,-4.1719 -10.086,-6.75 -16.574,-6.75 -3.3281,0 -6.4609,0.65625 -9.2617,1.8477 -2.9219,1.2383 -5.543,3.0625 -7.7266,5.3281 l -4.7188,-4.5391 4.7266,4.5508 c -2.5117,2.6094 -6.668,2.6914 -9.2773,0.17578 -1.0352,-0.99609 -1.6719,-2.25 -1.9062,-3.5664 -2.6172,-11.715 -9.25,-21.949 -18.41,-29.234 -9.0508,-7.1992 -20.578,-11.508 -33.145,-11.508 -14.613,0 -27.828,5.8281 -37.379,15.254 -9.5195,9.3945 -15.41,22.383 -15.41,36.742 0,3.4336 0.33203,6.7734 0.96484,9.9844 0.66016,3.3477 1.625,6.5391 2.8633,9.5469 l 0.0195,-0.008 c 1.3789,3.3516 -0.21875,7.1875 -3.5703,8.5664 -1.625,0.66797 -3.3633,0.63672 -4.8828,0.0469 -2.0664,-0.73047 -4.1836,-1.2891 -6.3359,-1.6602 -2.1719,-0.375 -4.4375,-0.57031 -6.7812,-0.57031 -10.762,0 -20.492,4.2891 -27.523,11.227 -7,6.9023 -11.328,16.453 -11.328,27.016 0,10.559 4.3281,20.109 11.328,27.016 7.0312,6.9336 16.758,11.227 27.523,11.227 h 125.61 c 5.9609,-6.3867 13.141,-11.621 21.172,-15.332 8.6641,-4.0039 18.293,-6.2383 28.422,-6.2383 4.8359,0 9.5859,0.51953 14.199,1.5 2.7422,0.58594 5.4336,1.3398 8.0586,2.2539 1.9492,-3.0195 4.1367,-5.8867 6.543,-8.5742 3.0234,-3.3789 6.3867,-6.4531 10.031,-9.1719 z"
       id="path3231"
       style="fill:#f5f5f5;fill-opacity:1" />
    <path
       d="m 420.43,178.07 c 18.152,0 34.586,7.3594 46.484,19.254 11.898,11.898 19.254,28.332 19.254,46.484 0,9.75 -2.1484,19.039 -6,27.414 -3.9961,8.6914 -9.8203,16.352 -16.973,22.488 l -2.4258,2.082 -3.1367,-0.64453 c -1.8008,-0.37109 -3.6328,-0.65234 -5.4961,-0.83984 -1.7188,-0.17578 -3.5898,-0.26562 -5.6094,-0.26562 -5.6445,0 -11.035,0.82812 -16.062,2.3672 -5.2422,1.6055 -10.148,3.9766 -14.59,6.9844 l -12.238,8.2852 2.0859,-14.617 c 0.12109,-0.85938 0.21875,-1.75 0.28125,-2.668 0.0586,-0.80469 0.0859,-1.6992 0.0859,-2.6914 0,-10.176 -4.0195,-19.41 -10.566,-26.242 -6.6289,-6.9141 -15.832,-11.398 -26.09,-11.953 l -9.3789,-0.50781 3.6875,-8.5938 c 0.60938,-1.418 1.0742,-2.8789 1.3789,-4.3633 0.28906,-1.4062 0.44141,-2.9336 0.44141,-4.5703 0,-2.3789 -0.36328,-4.668 -1.0391,-6.8086 -0.71875,-2.2773 -1.7539,-4.3672 -3.043,-6.2109 l -2.168,-3.0938 1.6016,-3.418 c 5.3398,-11.383 13.82,-20.973 24.309,-27.645 10.184,-6.4727 22.262,-10.227 35.211,-10.227 z m 37.203,28.535 c -9.5195,-9.5195 -22.676,-15.41 -37.203,-15.41 -10.375,0 -20.047,3 -28.188,8.1758 -7.4648,4.7461 -13.645,11.297 -17.918,19.031 1.1055,2.0156 2.0156,4.1289 2.7031,6.3164 1.0742,3.4062 1.6562,7.0195 1.6562,10.754 0,2 -0.17969,4.0156 -0.52734,6.0234 10.445,2.207 19.727,7.5117 26.801,14.891 7.7656,8.0977 12.891,18.676 14.023,30.391 2.4883,-1.1094 5.0586,-2.0703 7.6914,-2.8789 6.332,-1.9375 13,-2.9805 19.855,-2.9805 2.1992,0 4.5039,0.125 6.8906,0.36719 1.1758,0.12109 2.3477,0.26953 3.5039,0.44922 4.7188,-4.5391 8.5898,-9.9414 11.352,-15.941 3.0625,-6.6562 4.7695,-14.102 4.7695,-21.98 0,-14.527 -5.8906,-27.684 -15.41,-37.203 z"
       id="path3233"
       style="fill:#f5f5f5;fill-opacity:1" />
    <path
       d="m 425.16,110.81 c 0,-3.625 -2.9375,-6.5625 -6.5625,-6.5625 -3.625,0 -6.5625,2.9375 -6.5625,6.5625 v 44.707 c 0,3.625 2.9375,6.5625 6.5625,6.5625 3.625,0 6.5625,-2.9375 6.5625,-6.5625 z"
       id="path3235"
       style="fill:#f5f5f5;fill-opacity:1" />
    <path
       d="m 491.01,130.99 c 1.8125,-3.1289 0.74609,-7.1328 -2.3828,-8.9453 -3.12889,-1.8125 -7.1328,-0.74609 -8.9453,2.3828 l -22.355,38.719 c -1.8125,3.1289 -0.74609,7.1328 2.3828,8.9453 3.1289,1.8125 7.1328,0.74609 8.9453,-2.3828 z"
       id="path3237"
       style="fill:#f5f5f5;fill-opacity:1" />
    <path
       d="m 537.95,181.38 c 3.1289,-1.7969 4.207,-5.793 2.4102,-8.9219 -1.7969,-3.1289 -5.793,-4.207 -8.9219,-2.4102 l -38.719,22.352 c -3.1289,1.7969 -4.207,5.793 -2.4102,8.9219 1.7969,3.1289 5.793,4.207 8.9219,2.4102 z"
       id="path3239"
       style="fill:#f5f5f5;fill-opacity:1" />
    <path
       d="m 553.44,248.53 c 3.625,0 6.5625,-2.9375 6.5625,-6.5625 0,-3.625 -2.9375,-6.5625 -6.5625,-6.5625 h -44.707 c -3.625,0 -6.5625,2.9375 -6.5625,6.5625 0,3.625 2.9375,6.5625 6.5625,6.5625 z"
       id="path3241"
       style="fill:#f5f5f5;fill-opacity:1" />
    <path
       d="m 533.26,314.38 c 3.1289,1.8125 7.1328,0.74609 8.9453,-2.3828 1.8125,-3.12889 0.74609,-7.1328 -2.3828,-8.9453 l -38.719,-22.355 c -3.1289,-1.8125 -7.1328,-0.74609 -8.9453,2.3828 -1.8125,3.1289 -0.74609,7.1328 2.3828,8.9453 z"
       id="path3243"
       style="fill:#f5f5f5;fill-opacity:1" />
    <path
       d="m 358,126.29 c -1.7969,-3.1289 -5.793,-4.207 -8.9219,-2.4102 -3.1289,1.7969 -4.207,5.793 -2.4102,8.9219 l 22.352,38.719 c 1.7969,3.1289 5.793,4.207 8.9219,2.4102 3.1289,-1.7969 4.207,-5.793 2.4102,-8.9219 z"
       id="path3245"
       style="fill:#f5f5f5;fill-opacity:1" />
    <path
       d="m 446.53,294.04 c -10.352,0 -20.023,2.8672 -28.266,7.8477 -8.543,5.1641 -15.562,12.59 -20.219,21.441 l -2.8594,5.4336 -5.6016,-2.5117 c -3.4414,-1.543 -7.0977,-2.7461 -10.922,-3.5625 -3.668,-0.78125 -7.5078,-1.1953 -11.48,-1.1953 -11.887,0 -22.879,3.7734 -31.836,10.184 -9.2031,6.582 -16.277,15.957 -20,26.887 l -1.3086,3.8477 -4.0469,0.53516 c -9.8477,1.3047 -18.57,6.1992 -24.809,13.328 -6.1445,7.0234 -9.8711,16.238 -9.8711,26.344 0,11.047 4.4766,21.051 11.719,28.289 7.2383,7.2383 17.242,11.715 28.289,11.715 h 188 c 11.047,0 21.051,-4.4766 28.289,-11.715 7.2383,-7.2383 11.715,-17.242 11.715,-28.289 0,-10.445 -3.9727,-19.934 -10.48,-27.039 -6.5625,-7.1641 -15.73,-11.926 -26.027,-12.816 l -6.7656,-0.58594 0.81641,-6.7227 c 0.14453,-1.2031 0.25,-2.3203 0.3125,-3.3438 0.0586,-0.95312 0.0859,-2.0664 0.0859,-3.3398 0,-15.117 -6.125,-28.801 -16.031,-38.703 -9.9062,-9.9062 -23.59,-16.031 -38.703,-16.031 z m -35.035,-3.3828 c 10.234,-6.1836 22.223,-9.7422 35.035,-9.7422 18.738,0 35.703,7.5977 47.984,19.875 12.281,12.281 19.875,29.246 19.875,47.984 0,0.58984 -0.0117,1.2148 -0.0312,1.8711 11.008,2.3359 20.77,8.0938 28.121,16.117 8.6719,9.4648 13.965,22.055 13.965,35.855 0,14.672 -5.9492,27.953 -15.562,37.566 -9.6133,9.6133 -22.898,15.562 -37.57,15.562 h -188 c -14.672,0 -27.953,-5.9492 -37.566,-15.562 -9.6133,-9.6133 -15.562,-22.898 -15.562,-37.566 0,-13.371 4.9609,-25.602 13.152,-34.957 7.4297,-8.4883 17.527,-14.59 28.988,-17.008 4.875,-11.961 13.066,-22.223 23.438,-29.645 11.121,-7.957 24.734,-12.645 39.422,-12.645 4.8359,0 9.5859,0.51953 14.199,1.5 2.7422,0.58594 5.4297,1.3398 8.0547,2.2539 5.6133,-8.7344 13.172,-16.094 22.062,-21.465 z"
       id="path3247"
       style="fill:#f5f5f5;fill-opacity:1" />
  </g>
</svg>
